<svg version="1" xmlns="http://www.w3.org/2000/svg" width="853.333" height="853.333" viewBox="0 0 640.000000 640.000000"><path d="M90.8 40.1c-27.1 4-46.7 17.3-57.8 39.4-8.1 16.1-8.2 16.9-9 79-1 73.2-1 181.5 0 220.5.9 35.6 1.7 40.9 8.9 55.5 10.3 20.7 27 33.2 51.6 38.8 8.4 1.9 12.5 2 64 2.1 54.7.1 55 .1 58.5 2.3 1.9 1.2 5 3.7 6.8 5.5 3.2 3.3 3.4 4.1 12.1 47.9 5 24.4 9.7 46.9 10.6 49.9 5.6 18.6 19.4 31.8 37.2 35.5 10.3 2.2 251.5 2.2 265 0 30-4.9 52.8-24.2 60.7-51.6 3.5-12.2 3.7-19 3.6-164.9 0-154.5 0-153.9-4.9-168.3-6.2-18-18.9-33-34.1-40.5-14.4-7.1-20.8-8.3-50.5-9.2-14.3-.5-40.5-.9-58.3-.9-29.9-.1-32.6-.2-36.1-2-4-2.1-9.6-7.8-10.5-10.8-.3-1-3.9-19.1-8.1-40.3-8.9-45-11.4-55.2-15.6-63.1-4-7.4-14.2-17.2-21.3-20.5-12-5.5-8.7-5.4-143.1-5.3-68.2.1-126.6.5-129.7 1zM120 148.9c5.8 1.3 11.4 3.6 16.8 6.9 4.1 2.6 4.2 2.8 3.7 6.7-.4 2.2-1 5.3-1.5 7-.5 1.6-1.1 4.7-1.5 6.8l-.6 3.7-6.7-3.4c-10.2-5.3-14.9-6.6-23.8-6.6-7.1 0-8.5.3-12.5 2.9-8.3 5.2-12.1 14-12.1 28.1-.1 19.6 4.9 26.6 30.7 43.5 14.5 9.6 20.3 15.2 25 24.8 5.1 10.3 6.4 17 6.5 32.9 0 16.7-1.5 24.7-6.9 35.7-5.7 11.9-17.1 20.3-29.7 22-12.5 1.7-28.2-.5-37.3-5.3l-4.6-2.4-.3-12.2c-.1-6.7.1-12 .5-11.8.4.2 3.1 1.5 6 3 10.5 5.6 17.1 7.3 27.8 7.3 11.2 0 15.3-1.5 21.3-7.6 6.8-6.9 10.4-21.2 8.4-33.1-2.6-15-8.5-22.2-29.2-35.6-21.7-14.1-29.2-25.2-32.9-48.3-2.6-16.2.1-35.7 6.5-46.6 9.9-16.9 25.7-23.2 46.4-18.4zm103.2 4c3.7 1.2 8.6 3.6 11 5.4 5.7 4.4 11.3 12.5 13.3 19.5 1 3.1 2.2 7 2.8 8.6 1.7 4.7 1.3 39-.6 45.6-.9 3-1.9 6.6-2.3 8-1.6 5.5-7.8 14.2-14.1 19.9l-6.7 6 1.6 3.8c.9 2.1 2.6 6.5 3.8 9.8 1.2 3.3 2.6 6.9 3 8 .5 1.1 2.9 7.6 5.5 14.5 6.7 18 10.6 28.2 11.5 30.5 2.7 6.7 9 23.8 9 24.6 0 .5-3.8.9-8.5.9-8.4 0-8.6 0-9.6-2.8-2.5-6.1-7.2-19-8.9-24.2-1-3-3.1-9.1-4.8-13.5-1.7-4.4-4.4-12.1-6.2-17-1.7-5-4-11.3-5-14-1-2.8-2.6-7.2-3.6-9.8l-1.7-4.8-13.1.3-13.1.3-.3 42.7-.2 42.8h-15V254.7c0-56.9.3-103.7.8-104.1.4-.5 10.6-.6 22.7-.4 19.1.4 22.9.8 28.7 2.7zm138.6 8.3l.3 10.8-19.8.2-19.8.3-.5 92.5-.5 92.5h-14L307 265l-.5-92.5-19.7-.3-19.8-.2v-10.4c0-5.6.3-10.6.7-10.9.3-.4 21.6-.6 47.2-.5l46.6.3.3 10.7zm83.9 137c2.9 1.1 7.4 3.4 10 5.1 4.6 3.1 4.8 3.4 4.7 7.7-.2 7.8-2.6 19.1-4.1 19.7-.8.3-2.4-.4-3.6-1.5-5.4-4.9-20-10-25.7-8.9-3.6.8-4.8-.7-6.1-7.5-2.1-11.9-2.2-13.3-.5-14.8 4-3.2 16.3-3.1 25.3.2zm41.3 2.3c.5 1.4 1.4 5.1 1.9 8.3.9 5.2 3.7 20.9 6.1 33.7.5 2.7 2.1 11.1 3.5 18.5 2.3 12 5.3 28.1 7.5 41 .4 2.5 1.7 9.7 2.9 16 1.2 6.3 3.7 20.3 5.5 31 2 12.1 3.5 18.5 3.9 17 .3-1.4 1.5-8.8 2.7-16.5 1.9-12.4 4.2-25.5 7-39.5.4-2.5 1.4-7.4 2-11 .6-3.6 1.5-8.5 2-11s1.4-7.4 2-11c.7-3.6 1.8-9.9 2.6-14 1.5-7.5 2.2-11.9 4.4-24 1.6-9.6 3.1-17.6 6.1-32.7.6-3.5 1.7-6.8 2.4-7.3.8-.6 4.2-1 7.7-.8 6 .3 6.3.4 6.6 2.9.3 2.2-2.2 16.1-8.9 51.4-.4 2.2-1.2 6.6-1.8 9.7-1.1 5.5-1.9 10.4-4 22-1.6 8.7-8 42.1-8.5 44.3-.3 1.1-1.4 7.2-2.6 13.5-2.2 12.3-3.3 18.3-4.9 27-.6 3-2.5 12.6-4.1 21.3-1.7 8.8-3.3 16.3-3.6 16.8-.3.5-3.8.9-7.9.9h-7.3l-1.1-5c-1.7-7.7-2.9-13.7-4.6-23.5-.9-5-2-10.8-2.5-13-.5-2.2-1.8-9.4-3-16s-2.5-14.3-3.1-17c-2.5-12.6-9.1-47.6-11-58-1.1-6.1-2.2-11.8-3.9-21-.6-2.8-2.6-13.6-4.5-24-2-10.5-4.1-21.3-4.7-24.2-1.6-7.7-1.1-8.3 7.2-8.3 6.6 0 7.1.2 8 2.5zm-37.1 105.1c5.5 6 10.1 14.8 12.2 23.4.9 3.7 1.4 11.6 1.4 24-.1 20-1.3 26.8-7.2 38.3-5.5 11-16.4 18.8-28 20.3-14.3 1.8-37.1-6.6-34.8-12.8.4-.9 3.9-4.5 8-8.1l7.3-6.4 5.3 1.3c11.6 3 21.7 1 27.1-5.4 5-6 7-13.4 6.9-26.2-.1-9.1-.5-12.7-2.2-17-3.3-8.7-6.9-24.5-6.9-30.2 0-1.4-.6-4.3-1.4-6.4-.7-2.2-1.1-4.5-.9-5.2.6-1.6 6.4 3 13.2 10.4z"/><path d="M186.7 172.7c-.4.3-.7 17.6-.7 38.3 0 32.7.2 37.9 1.5 39 1.2 1 4.7 1.1 14.7.6 11.6-.5 13.6-.9 18.2-3.4 5.1-2.7 11.9-10.5 12.9-14.6 4.1-16.8 4.6-23.8 2.3-34.7-2.8-13.5-7.9-20.3-17.7-23.9-4.3-1.6-7.9-2-18-2-6.9 0-12.9.3-13.2.7z"/></svg>